<svg width="26" height="40" viewBox="0 0 26 40" fill="none" xmlns="http://www.w3.org/2000/svg">
<path d="M24.8149 17.4049L5.76235 0.860182C3.51719 -1.09235 5.36103e-06 0.494516 5.10197e-06 3.45781L2.20919e-06 36.5473C-0.000571961 37.2105 0.191458 37.8598 0.553091 38.4175C0.914726 38.9751 1.43064 39.4175 2.03904 39.6916C2.64745 39.9657 3.32255 40.0599 3.98352 39.9629C4.64448 39.866 5.26329 39.582 5.76583 39.145L24.8115 22.6002C25.1848 22.2764 25.4839 21.8771 25.6889 21.4291C25.8939 20.981 26 20.4946 26 20.0026C26 19.5105 25.8939 19.0241 25.6889 18.5761C25.4839 18.1281 25.1848 17.7287 24.8115 17.4049L24.8149 17.4049Z" fill="white"/>
</svg>
