<svg width="26" height="40" viewBox="0 0 26 40" fill="none" xmlns="http://www.w3.org/2000/svg">
<path d="M1.18507 22.5951L20.2377 39.1398C22.4828 41.0923 26 39.5055 26 36.5422V3.45266C26.0006 2.78947 25.8085 2.14018 25.4469 1.58254C25.0853 1.02489 24.5694 0.582532 23.961 0.308433C23.3526 0.0343343 22.6774 -0.0598854 22.0165 0.0370575C21.3555 0.134 20.7367 0.417996 20.2342 0.855035L1.18854 17.3998C0.815244 17.7236 0.516052 18.1229 0.311055 18.5709C0.106058 19.019 0 19.5054 0 19.9974C0 20.4895 0.106058 20.9759 0.311055 21.4239C0.516052 21.8719 0.815244 22.2713 1.18854 22.5951H1.18507Z" fill="white"/>
</svg>
