<svg width="46" height="43" viewBox="0 0 46 43" fill="none" xmlns="http://www.w3.org/2000/svg">
<g clip-path="url(#clip0_327_469)">
<path d="M14.5388 17.7555C15.5728 17.7555 16.4119 16.9649 16.4119 15.9909V9.10934C16.4119 6.0329 19.0689 3.52904 22.3347 3.52904C25.6005 3.52904 28.2584 6.0329 28.2584 9.10934V15.9909C28.2584 16.9649 29.0967 17.7555 30.1315 17.7555C31.1655 17.7555 32.0046 16.9649 32.0046 15.9909V9.10934C32.0055 4.08663 27.6675 0 22.3347 0C17.0039 0 12.6657 4.08663 12.6657 9.10934V15.9909C12.6657 16.9649 13.5048 17.7555 14.5388 17.7555Z" fill="white"/>
<path d="M43.8213 13.7906H33.8789V15.9909C33.8789 17.9373 32.1987 19.52 30.1327 19.52C28.0666 19.52 26.3865 17.9373 26.3865 15.9909V13.7906H18.2862V15.9909C18.2862 17.9373 16.6061 19.52 14.54 19.52C12.474 19.52 10.7938 17.9373 10.7938 15.9909V13.7906H0.739886C0.222908 13.7906 -0.0964561 14.1744 0.0262325 14.6472L6.58023 39.7891C6.97546 41.2025 8.55449 42.3485 10.1054 42.3485H34.4558C36.0086 42.3485 37.5858 41.2025 37.9828 39.7891L44.535 14.6472C44.6577 14.1734 44.3393 13.7906 43.8213 13.7906Z" fill="white"/>
</g>
<defs>
<clipPath id="clip0_327_469">
<rect width="45.6061" height="43" fill="white"/>
</clipPath>
</defs>
</svg>
